<svg width="1440" height="900" viewBox="0 0 1440 900" xmlns="http://www.w3.org/2000/svg" font-family="Hind Siliguri, Noto Sans Bengali, Arial, sans-serif">
  <rect x="0" y="0" width="1440" height="900" fill="#f8fafc"/>

  <!-- ===== Sidebar ===== -->
  <rect x="0" y="0" width="232" height="900" fill="#0f172a"/>
  <g>
    <rect x="16" y="20" width="26" height="26" rx="6" fill="#8b5cf6"/>
    <text x="24" y="38" font-size="13" font-weight="700" fill="#ffffff">A</text>
    <text x="52" y="39" font-size="16" font-weight="700" fill="#ffffff">Amar School</text>
  </g>

  <g font-size="13">
    <!-- Dashboard (active) -->
    <rect x="12" y="76" width="208" height="34" rx="4" fill="#7c3aed"/>
    <text x="26" y="98" fill="#ffffff">ড্যাশবোর্ড</text>

    <text x="26" y="132" fill="#cbd5e1">শিক্ষার্থী (Students)</text>
    <text x="26" y="166" fill="#cbd5e1">কর্মচারী (Employees)</text>
    <text x="26" y="200" fill="#cbd5e1">উপস্থিতি (Attendance)</text>
    <text x="26" y="234" fill="#cbd5e1">শ্রেণি ও পাঠ্যক্রম (Class)</text>
    <text x="26" y="268" fill="#cbd5e1">পরীক্ষা ও ফলাফল (Exams)</text>
    <text x="26" y="302" fill="#cbd5e1">হিসাব ও ফি (Accounting)</text>
    <text x="26" y="336" fill="#cbd5e1">এসএমএস (SMS)</text>
    <text x="26" y="370" fill="#cbd5e1">প্রকাশনা (Publishing)</text>
    <text x="26" y="404" fill="#cbd5e1">মতামত (Feedback)</text>
    <text x="26" y="438" fill="#cbd5e1">স্টাফ অনুমতি (Permissions)</text>
    <text x="26" y="472" fill="#cbd5e1">প্রতিষ্ঠান সেটআপ (Institute)</text>
  </g>

  <g font-size="11" fill="#475569">
    <text x="26" y="850">গ্রীনভিউ হাই স্কুল</text>
    <text x="26" y="868">School Owner · রহিম উদ্দিন</text>
  </g>

  <!-- ===== Topbar ===== -->
  <rect x="232" y="0" width="1208" height="60" fill="#ffffff" stroke="#e2e8f0"/>
  <text x="264" y="38" font-size="20" font-weight="600" fill="#0f172a">ড্যাশবোর্ড</text>

  <g font-size="12" font-weight="600">
    <rect x="1180" y="16" width="80" height="28" rx="6" fill="#ffffff" stroke="#e2e8f0"/>
    <rect x="1180" y="16" width="40" height="28" rx="6" fill="#7c3aed"/>
    <text x="1191" y="34" fill="#ffffff">বাং</text>
    <text x="1230" y="34" fill="#334155">EN</text>
  </g>
  <circle cx="1380" cy="30" r="16" fill="#ede9fe"/>
  <text x="1372" y="35" font-size="12" fill="#7c3aed" font-weight="700">রউ</text>

  <!-- ===== Subscription status banner ===== -->
  <rect x="264" y="80" width="1144" height="48" rx="8" fill="#fef3c7" stroke="#fcd34d"/>
  <text x="284" y="110" font-size="13" fill="#b45309" font-weight="600">ট্রায়াল মোডে চলছে — মেয়াদ শেষ ১২ আগস্ট, ২০২৬ · Trial — expires Aug 12, 2026</text>

  <!-- ===== KPI grid ===== -->
  <g>
    <rect x="264" y="150" width="266" height="112" rx="10" fill="#ffffff" stroke="#e2e8f0"/>
    <text x="284" y="180" font-size="11" fill="#64748b">মোট শিক্ষার্থী · TOTAL STUDENTS</text>
    <text x="284" y="222" font-size="28" font-weight="700" fill="#0f172a">1,248</text>
    <text x="284" y="246" font-size="12" fill="#15803d">▲ ৩.২% গত মাসের তুলনায়</text>

    <rect x="550" y="150" width="266" height="112" rx="10" fill="#ffffff" stroke="#e2e8f0"/>
    <text x="570" y="180" font-size="11" fill="#64748b">মোট কর্মচারী · TOTAL EMPLOYEES</text>
    <text x="570" y="222" font-size="28" font-weight="700" fill="#0f172a">86</text>
    <text x="570" y="246" font-size="12" fill="#64748b">গত মাস থেকে অপরিবর্তিত</text>

    <rect x="836" y="150" width="266" height="112" rx="10" fill="#ffffff" stroke="#e2e8f0"/>
    <text x="856" y="180" font-size="11" fill="#64748b">আজকের উপস্থিতি · ATTENDANCE TODAY</text>
    <text x="856" y="222" font-size="28" font-weight="700" fill="#0f172a">94.2%</text>
    <text x="856" y="246" font-size="12" fill="#b91c1c">▼ ১২ জন অনুপস্থিত</text>

    <rect x="1122" y="150" width="286" height="112" rx="10" fill="#ffffff" stroke="#e2e8f0"/>
    <text x="1142" y="180" font-size="11" fill="#64748b">সাবস্ক্রিপশন · SUBSCRIPTION</text>
    <rect x="1142" y="198" width="70" height="24" rx="4" fill="#fef3c7" stroke="#fcd34d"/>
    <text x="1153" y="214" font-size="12" font-weight="700" fill="#b45309">Trial</text>
    <text x="1142" y="246" font-size="12" fill="#64748b">কোড রিডিম করুন · Redeem a code</text>
  </g>

  <!-- ===== Recent activity + notices ===== -->
  <rect x="264" y="288" width="700" height="380" rx="10" fill="#ffffff" stroke="#e2e8f0"/>
  <text x="284" y="320" font-size="15" font-weight="600" fill="#0f172a">সাম্প্রতিক কার্যক্রম · Recent Activity</text>

  <g font-size="13">
    <text x="284" y="360" fill="#0f172a">নুসরাত জাহান — আচরণ লগ যোগ করা হয়েছে</text>
    <text x="284" y="378" fill="#94a3b8" font-size="11">২ ঘণ্টা আগে · Behaviour Log entry added</text>

    <line x1="284" y1="394" x2="944" y2="394" stroke="#f1f5f9"/>

    <text x="284" y="418" fill="#0f172a">অর্ধ-বার্ষিক পরীক্ষা বন্ধ করা হয়েছে</text>
    <text x="284" y="436" fill="#94a3b8" font-size="11">গতকাল · Exam "Half-Yearly" closed (permanent)</text>

    <line x1="284" y1="452" x2="944" y2="452" stroke="#f1f5f9"/>

    <text x="284" y="476" fill="#0f172a">ফেব্রুয়ারি মাসের ফি সংগ্রহ সম্পন্ন — ২১০ জন শিক্ষার্থী</text>
    <text x="284" y="494" fill="#94a3b8" font-size="11">২ দিন আগে · February Fee Collection recorded for 210 students</text>
  </g>

  <rect x="984" y="288" width="424" height="380" rx="10" fill="#ffffff" stroke="#e2e8f0"/>
  <text x="1004" y="320" font-size="15" font-weight="600" fill="#0f172a">দ্রুত অ্যাকশন · Quick Actions</text>
  <rect x="1004" y="340" width="384" height="40" rx="6" fill="#f5f3ff" stroke="#ddd6fe"/>
  <text x="1018" y="365" font-size="13" fill="#6d28d9">উপস্থিতি নিন · Take Attendance</text>
  <rect x="1004" y="390" width="384" height="40" rx="6" fill="#f5f3ff" stroke="#ddd6fe"/>
  <text x="1018" y="415" font-size="13" fill="#6d28d9">ফি সংগ্রহ করুন · Collect a Fee</text>
  <rect x="1004" y="440" width="384" height="40" rx="6" fill="#f5f3ff" stroke="#ddd6fe"/>
  <text x="1018" y="465" font-size="13" fill="#6d28d9">নোটিশ পাঠান · Publish a Notice</text>
</svg>
